<?xml version="1.0" standalone="no"?><!DOCTYPE svg PUBLIC "-//W3C//DTD SVG 1.1//EN" "http://www.w3.org/Graphics/SVG/1.1/DTD/svg11.dtd">
<svg t="1538029629435" class="icon" style="" viewBox="0 0 1024 1024" version="1.1" 
    xmlns="http://www.w3.org/2000/svg" p-id="1865" 
    xmlns:xlink="http://www.w3.org/1999/xlink" width="32" height="32">
    <defs>
        <style type="text/css"></style>
    </defs>
    <path d="M442.144462 338.810647m-17.520329 0a0.97 0.97 0 1 0 35.040658 0 0.97 0.97 0 1 0-35.040658 0Z" p-id="1866" fill="#62ddbd"></path>
    <path d="M512.027093 93.1648c-245.645847 0-444.781543 199.099571-444.781543 444.745418 0 245.645847 199.135696 444.781543 444.781543 444.781543 245.609723 0 444.745418-199.135696 444.745418-444.781543C956.772512 292.264371 757.618754 93.1648 512.027093 93.1648zM325.372374 611.242728c0 19.362673-15.696047 35.022595-35.040658 35.022595s-35.004533-15.659923-35.004533-35.022595l0-149.825904c0-19.362673 15.659923-35.022595 35.004533-35.022595s35.040658 15.659923 35.040658 35.022595L325.372374 611.242728zM675.634452 455.528548l0 23.733724 0 204.012488c0 20.392218-16.54497 36.973312-36.973312 36.973312l-26.677861 0c0.885048 3.106697 1.372727 6.357893 1.372727 9.699399l0 1.968779 0 11.668178 0 60.32773c0 19.326548-15.659923 35.022595-35.022595 35.022595-19.326548 0-35.022595-15.696047-35.022595-35.022595l0-60.32773 0-11.668178 0-1.968779c0-3.359568 0.487679-6.592701 1.408851-9.699399l-65.060025 0c0.885048 3.106697 1.372727 6.357893 1.372727 9.699399l0 1.968779 0 11.668178 0 60.32773c0 19.326548-15.696047 35.022595-35.022595 35.022595s-35.022595-15.696047-35.022595-35.022595l0-60.32773 0-11.668178 0-1.968779c0-3.359568 0.487679-6.592701 1.408851-9.699399l-26.713986 0c-20.392218 0-36.95525-16.581095-36.95525-36.973312L348.726792 479.262272 348.726792 455.528548l0-29.13432 2.528707 0 321.88637 0 2.510645 0L675.652514 455.528548zM348.726792 403.021749c0-50.050341 33.505371-93.760852 83.068033-116.826275l-6.556577-9.88002-6.520452-9.735523-14.540067-21.837193c-1.770095-2.691267-1.065669-6.321768 1.625598-8.091863s6.321768-1.065669 8.109925 1.625598l15.623798 23.426666 6.520452 9.843896 6.66495 9.988394c21.096643-8.182174 44.631683-12.769972 69.431076-12.769972 24.835518 0 48.406682 4.587797 69.467201 12.769972l6.66495-9.988394 6.556577-9.843896 15.623798-23.426666c1.770095-2.691267 5.400596-3.431817 8.109925-1.625598 2.63708 1.788157 3.395693 5.400596 1.589473 8.091863l-14.540067 21.837193-6.484328 9.735523-6.592701 9.88002c49.562662 23.04736 83.086095 66.775934 83.086095 116.826275L348.726792 403.021749zM769.052123 611.242728c0 19.362673-15.659923 35.022595-35.004533 35.022595-19.362673 0-35.05872-15.659923-35.05872-35.022595l0-149.825904c0-19.362673 15.696047-35.022595 35.05872-35.022595 19.326548 0 35.004533 15.659923 35.004533 35.022595L769.052123 611.242728z" p-id="1867" fill="#62ddbd"></path>
    <path d="M582.252906 338.810647m-17.520329 0a0.97 0.97 0 1 0 35.040658 0 0.97 0.97 0 1 0-35.040658 0Z" p-id="1868" fill="#62ddbd"></path>
</svg>