<?xml version="1.0" standalone="no"?><!DOCTYPE svg PUBLIC "-//W3C//DTD SVG 1.1//EN" "http://www.w3.org/Graphics/SVG/1.1/DTD/svg11.dtd"><svg t="1538030284229" class="icon" style="" viewBox="0 0 1024 1024" version="1.1" xmlns="http://www.w3.org/2000/svg" p-id="3143" xmlns:xlink="http://www.w3.org/1999/xlink" width="32" height="32"><defs><style type="text/css"></style></defs><path d="M512 64.5C264.9 64.5 64.5 264.9 64.5 512S264.9 959.5 512 959.5 959.5 759.1 959.5 512 759.1 64.5 512 64.5z m228.7 460.8c2.9 60-62.7 93.6-110.3 96.5 22.1-21 80.3-54.8 68.9-103.4-4.7-19.6-29.1-31.5-56.8-25.8 35.5-30.3 95.6-18.5 98.2 32.7z m-87.9-273.9c-19.8 14-39.1 25.8-60.3 43.1-16 13.1-45 31-46.5 55.1-2.4 36.7 54.1 70.6 24.1 117.1-11.4 17.7-30.7 25.3-55.1 36.2-2.9-5.3 6.4-9.8 10.3-15.5 37.6-54.4-39.1-72.5-29.3-139.5 9.5-64.8 85.8-87.4 156.8-96.5z m-258.4 74.1c28.4-52.4 113-83.6 143-139.5 7.2-13.6 12.9-34.4 3.4-51.7 12.1 11.4 20.7 32.6 20.7 55.1 0 66.7-70.6 105.3-105.1 149.9-7.6 10-17.4 25.3-17.2 41.3 0.3 36.3 37.9 77 51.7 106.8-24.1-15.9-53.4-37-74.1-62-20.7-24.8-41.4-65.1-22.4-99.9z m-8.7 151.6c6.4-0.5 18.3-3.1 27.6-1.7-17.7 8.3-47.4 9.8-60.3 27.6 13.1 9.8 32.2 9.5 50 10.3 72.7 3.3 163.7-2.9 225.7-13.8 2.1 4.5-8.6 12.2-15.5 17.2-39.1 28.6-160.7 36.7-244.6 31-28.1-1.9-92.3-9.3-93-34.4-1-30.6 77.7-33.8 110.1-36.2zM530.5 639c7.9-1.9 15.9-7.4 22.4-6.9 20 1.4 27.6 22.2 44.8 25.8-55 33.6-188.1 47.2-242.9 5.2-2.6-30.7 22.1-34.1 44.8-39.6 5.3 1.7-1.9 4.7-1.7 6.9 15.6 27.2 93.1 17.6 132.6 8.6z m-148.2-24.2c-19.1-3.6-52.4-14-53.4-29.3-1.6-20.9 32.9-29.6 48.2-32.7 8.1 1-5.7 5.9-3.4 12.1 29.6 29.3 121.8 21 167.1 12.1 9.5-1.9 19-7.6 25.8-6.9 17.2 1.6 28.2 21.5 43.1 24.1-52.3 23.6-153.5 34.8-227.4 20.6z m-156.8 84.5c2.1-38.6 95.1-49.3 124-24.1-16.4 4.1-58.7-1.7-60.3 20.7-0.5 8.6 14.5 18.8 24.1 22.4 56.2 21.2 169 24.5 261.9 13.8 43.1-5 124-19.5 113.7-63.7 12.9 1.6 24.5 9.8 25.8 22.4 5.2 47.5-104.1 67.5-148.1 72.4-96 10.5-215.9 8.4-289.4-17.2-23.9-8.5-52.9-23.8-51.7-46.7zM570.1 818H496c-64.6-7.1-126.8-16.5-179.2-39.6 137 32.9 336.6 30.5 432.4-39.6 5.2-3.8 10-11.2 17.2-10.3-24 72.3-116.7 77.3-196.3 89.5z" p-id="3144" fill="#e8583d"></path></svg>